<?xml version="1.0" encoding="UTF-8" standalone="no"?>
<!-- Created with Inkscape (http://www.inkscape.org/) -->

<svg
   width="118.67149mm"
   height="77.696083mm"
   viewBox="0 0 118.67149 77.696083"
   version="1.1"
   id="svg1"
   inkscape:version="1.4.2 (f4327f4, 2025-05-13)"
   sodipodi:docname="mail.svg"
   xml:space="preserve"
   xmlns:inkscape="http://www.inkscape.org/namespaces/inkscape"
   xmlns:sodipodi="http://sodipodi.sourceforge.net/DTD/sodipodi-0.dtd"
   xmlns="http://www.w3.org/2000/svg"
   xmlns:svg="http://www.w3.org/2000/svg"><sodipodi:namedview
     id="namedview1"
     pagecolor="#505050"
     bordercolor="#eeeeee"
     borderopacity="1"
     inkscape:showpageshadow="0"
     inkscape:pageopacity="0"
     inkscape:pagecheckerboard="0"
     inkscape:deskcolor="#505050"
     inkscape:document-units="mm"
     inkscape:zoom="1.8519888"
     inkscape:cx="143.3594"
     inkscape:cy="133.64012"
     inkscape:window-width="1920"
     inkscape:window-height="974"
     inkscape:window-x="-11"
     inkscape:window-y="-11"
     inkscape:window-maximized="1"
     inkscape:current-layer="layer1" /><defs
     id="defs1"><inkscape:path-effect
       effect="perspective-envelope"
       up_left_point="103.56794,99.252806"
       up_right_point="145.00364,90.252347"
       down_left_point="120.85453,134.11675"
       down_right_point="160.93303,120.90179"
       id="path-effect5"
       is_visible="true"
       lpeversion="1"
       deform_type="perspective"
       horizontal_mirror="false"
       vertical_mirror="false"
       overflow_perspective="false" /><inkscape:path-effect
       effect="perspective-envelope"
       up_left_point="106.21093,94.824009"
       up_right_point="147.93236,94.824009"
       down_left_point="106.21093,136.54544"
       down_right_point="147.93236,136.54544"
       id="path-effect4"
       is_visible="true"
       lpeversion="1"
       deform_type="perspective"
       horizontal_mirror="false"
       vertical_mirror="false"
       overflow_perspective="false" /></defs><g
     inkscape:label="Layer 1"
     inkscape:groupmode="layer"
     id="layer1"
     transform="translate(-62.357076,-86.87755)"><path
       style="fill:#1a1a1a;fill-opacity:0.403651;stroke:none;stroke-width:0.264583;stroke-opacity:1"
       d="m 62.357076,110.42669 c 28.545225,-9.59467 57.177084,-18.323009 86.473464,-20.406123 16.2519,11.826233 23.11099,27.736303 30.91225,43.236733 -35.27194,5.64802 -66.15831,17.32621 -95.363264,31.31633 -4.447602,-18.16953 -8.672743,-36.34833 -22.02245,-54.14694 z"
       id="path1"
       sodipodi:nodetypes="ccccc" /><path
       style="fill:#ffffff;fill-opacity:1;stroke:none;stroke-width:0.264583;stroke-opacity:1"
       d="m 63.642856,107.28367 c 28.545225,-9.594667 57.177084,-18.323006 86.473464,-20.40612 16.2519,11.826236 23.11099,27.7363 30.91225,43.23673 -35.27194,5.64802 -66.15831,17.32621 -95.363264,31.31633 -4.447602,-18.16953 -8.672743,-36.34833 -22.02245,-54.14694 z"
       id="path16"
       sodipodi:nodetypes="ccccc" /><path
       style="fill:none;fill-opacity:1;stroke:#000000;stroke-width:1.665;stroke-dasharray:none;stroke-opacity:1"
       d="m 64.65482,107.77716 c 12.192803,-0.13111 40.10346,3.01102 67.28048,8.94307 6.88144,-6.88552 15.89999,-23.010537 18.14378,-29.519354"
       id="path2"
       sodipodi:nodetypes="ccc" /></g><g
     inkscape:groupmode="layer"
     id="layer7"
     inkscape:label="badge"
     transform="translate(-62.357076,-86.87755)"><g
       id="g4"
       inkscape:path-effect="#path-effect5"
       transform="translate(-4.5716619,2.285831)"><path
         id="path3"
         d="m 152.90528,105.45575 c 4.41782,8.50025 -0.10922,18.12902 -10.76902,21.64384 -11.41574,3.76408 -25.20551,-0.89641 -30.00241,-10.57089 -4.74969,-9.57927 1.61824,-19.488044 13.41508,-22.050498 11.02828,-2.395506 22.977,2.551314 27.35635,10.977548 z"
         style="opacity:1;fill:#ffffff;stroke:#3d0081;stroke-width:2.326;stroke-dasharray:none;stroke-opacity:1"
         inkscape:original-d="m 147.93236,115.68472 c 0,11.52106 -9.33966,20.86072 -20.86071,20.86072 -11.52106,0 -20.86072,-9.33966 -20.86072,-20.86072 0,-11.52105 9.33966,-20.860711 20.86072,-20.860711 11.52105,0 20.86071,9.339661 20.86071,20.860711 z" /><path
         style="opacity:1;fill:#fef100;fill-opacity:1;stroke:#3d0081;stroke-width:0.926;stroke-dasharray:none;stroke-opacity:1"
         d="m 131.43844,125.49668 -11.67976,-23.2005 19.53804,-4.616193 3.14351,6.106663 -10.46503,2.69538 8.29339,16.30483 z"
         id="path4"
         inkscape:original-d="m 118.43462,131.14955 v -28.85861 h 20.00102 v 8.14327 h -11.072 v 20.78677 z" /></g></g><g
     inkscape:groupmode="layer"
     id="layer8"
     inkscape:label="writing"
     transform="translate(-62.357076,-86.87755)"><path
       style="opacity:1;fill:none;fill-opacity:1;stroke:#3d0081;stroke-width:0.526;stroke-dasharray:none;stroke-opacity:1"
       d="m 89.022986,147.76141 c -0.684011,0.39071 -1.694726,1.6652 -2.20377,0.48026 -0.39071,-0.90949 -0.426678,-0.91858 0.326752,-1.77301 1.106866,-1.25524 5.85089,-1.03636 7.623992,-1.79807 0.74669,-0.32077 1.601707,-0.90611 2.137203,-1.54008 0.818052,-0.96848 1.282764,-2.58797 1.30153,-2.58049 0.337574,0.13469 -0.01143,0.74643 -0.158523,1.07879 -0.280126,0.63292 -0.603152,1.246 -0.908205,1.8673 -0.298931,0.60884 -0.552858,1.1198 -0.7395,1.71709"
       id="path9" /><path
       style="opacity:1;fill:none;fill-opacity:1;stroke:#3d0081;stroke-width:0.526;stroke-dasharray:none;stroke-opacity:1"
       d="m 91.644992,142.82552 c 0.515504,0.73131 0.982002,1.61916 0.940153,2.55042 -0.09364,2.08383 -0.791064,8.47764 -2.364497,9.87867 -0.886269,0.78917 -1.245584,-0.96713 -1.033038,-1.49983"
       id="path10" /><path
       style="opacity:1;fill:none;fill-opacity:1;stroke:#3d0081;stroke-width:0.526;stroke-dasharray:none;stroke-opacity:1"
       d="m 91.294268,149.42901 c 1.206202,0.26366 2.441076,-0.0659 3.526126,-0.65961 0.687875,-0.37638 0.665588,-1.2215 0.739971,-1.17308 0.416145,0.27089 0.284593,1.16282 0.263938,1.51926"
       id="path11" /><path
       style="opacity:1;fill:none;fill-opacity:1;stroke:#3d0081;stroke-width:0.526;stroke-dasharray:none;stroke-opacity:1"
       d="m 93.593745,151.16224 c -0.587758,0.27807 -1.088079,0.27367 -1.331129,0.88282 -1.648565,4.13173 3.399742,1.76079 2.541642,-0.23668 -0.276851,-0.64445 -0.40381,-0.68408 -1.210513,-0.64614 z"
       id="path12" /><path
       style="opacity:1;fill:none;fill-opacity:1;stroke:#3d0081;stroke-width:0.526;stroke-dasharray:none;stroke-opacity:1"
       d="m 92.51543,151.54772 c -0.641732,0.7828 3.348339,-0.0228 3.553858,-1.13798 0.06996,-0.3796 -0.432858,-0.55072 -0.562968,-0.22463 -0.124618,0.31234 1.854238,-0.25975 2.175576,-0.54589 0.196403,-0.17492 -0.524057,0.17485 -0.693772,0.37575 -0.257571,0.30494 -0.959235,1.3362 -0.898964,1.70784 0.18648,1.14985 2.352311,-0.25533 2.691394,-0.61198"
       id="path13" /><path
       style="opacity:1;fill:none;fill-opacity:1;stroke:#3d0081;stroke-width:0.326001;stroke-dasharray:none;stroke-opacity:1"
       d="m 99.78814,148.64116 c 0.1969,-0.0476 -0.252134,0.0683 0.114368,-0.0217 0.121622,-0.0298 0.142712,-0.37073 -0.01193,-0.37969 -0.327515,-0.019 -0.41455,0.24807 -0.102457,0.40134 z"
       id="path14" /><path
       style="opacity:1;fill:none;fill-opacity:1;stroke:#3d0081;stroke-width:0.326001;stroke-dasharray:none;stroke-opacity:1"
       d="m 100.41779,150.07484 c 0.0839,-0.0233 0.10752,-0.0468 0.12592,-0.12277 0.0134,-0.0554 -0.004,-0.0891 -0.0432,-0.1326 -0.18368,-0.20629 -0.594517,0.62425 -0.0827,0.25541 z"
       id="path15" /></g></svg>
