<?xml version="1.0" encoding="UTF-8" standalone="no"?>
<!-- Created with Inkscape (http://www.inkscape.org/) -->

<svg
   width="244.90697mm"
   height="127.58131mm"
   viewBox="0 0 244.90697 127.58132"
   version="1.1"
   id="svg1"
   inkscape:version="1.4.2 (f4327f4, 2025-05-13)"
   sodipodi:docname="rose.svg"
   xmlns:inkscape="http://www.inkscape.org/namespaces/inkscape"
   xmlns:sodipodi="http://sodipodi.sourceforge.net/DTD/sodipodi-0.dtd"
   xmlns:xlink="http://www.w3.org/1999/xlink"
   xmlns="http://www.w3.org/2000/svg"
   xmlns:svg="http://www.w3.org/2000/svg">
  <sodipodi:namedview
     id="namedview1"
     pagecolor="#505050"
     bordercolor="#eeeeee"
     borderopacity="1"
     inkscape:showpageshadow="0"
     inkscape:pageopacity="0"
     inkscape:pagecheckerboard="0"
     inkscape:deskcolor="#505050"
     inkscape:document-units="mm"
     inkscape:zoom="0.65477693"
     inkscape:cx="493.29777"
     inkscape:cy="49.635225"
     inkscape:window-width="1920"
     inkscape:window-height="974"
     inkscape:window-x="-11"
     inkscape:window-y="-11"
     inkscape:window-maximized="1"
     inkscape:current-layer="layer1" />
  <defs
     id="defs1">
    <linearGradient
       id="linearGradient74"
       inkscape:collect="always">
      <stop
         style="stop-color:#f11e1e;stop-opacity:1;"
         offset="0"
         id="stop74" />
      <stop
         style="stop-color:#ff2250;stop-opacity:1;"
         offset="1"
         id="stop75" />
    </linearGradient>
    <linearGradient
       id="linearGradient72"
       inkscape:collect="always">
      <stop
         style="stop-color:#f11e1e;stop-opacity:1;"
         offset="0"
         id="stop72" />
      <stop
         style="stop-color:#ff2250;stop-opacity:1;"
         offset="1"
         id="stop73" />
    </linearGradient>
    <inkscape:path-effect
       effect="bspline"
       id="path-effect6"
       is_visible="true"
       lpeversion="1.3"
       weight="33.333333"
       steps="2"
       helper_size="0"
       apply_no_weight="true"
       apply_with_weight="true"
       only_selected="false"
       uniform="false" />
    <inkscape:path-effect
       effect="bspline"
       id="path-effect5"
       is_visible="true"
       lpeversion="1.3"
       weight="33.333333"
       steps="2"
       helper_size="0"
       apply_no_weight="true"
       apply_with_weight="true"
       only_selected="false"
       uniform="false" />
    <inkscape:path-effect
       effect="spiro"
       id="path-effect4"
       is_visible="true"
       lpeversion="1" />
    <linearGradient
       inkscape:collect="always"
       xlink:href="#linearGradient72"
       id="linearGradient73"
       x1="109.21783"
       y1="183.99872"
       x2="100.40916"
       y2="83.584427"
       gradientUnits="userSpaceOnUse" />
    <linearGradient
       inkscape:collect="always"
       xlink:href="#linearGradient74"
       id="linearGradient75"
       x1="-50.986176"
       y1="130.27061"
       x2="-85.194275"
       y2="58.344086"
       gradientUnits="userSpaceOnUse" />
  </defs>
  <g
     inkscape:groupmode="layer"
     id="layer5"
     inkscape:label="petals"
     transform="translate(98.86171)">
    <path
       style="fill:#f11e1e;fill-opacity:1;stroke:#000000;stroke-width:1.465;stroke-dasharray:none"
       d="m -51.859788,110.8628 c -2.925204,-0.57813 -5.806384,-0.31564 -8.429003,-1.71437 -2.605984,-1.38986 -4.763585,-3.35282 -7.143221,-5.00026 -2.036572,-1.40993 -5.023874,-3.82404 -7.714678,-3.28588 -3.344437,0.66889 -5.087662,7.96258 -3.000156,10.57197 4.804469,6.00558 17.75882,8.09964 23.286905,2.57156 1.470576,-1.47058 2.7778,-0.69714 3.000153,-3.14302 z"
       id="path49" />
    <path
       style="fill:#f11e1e;fill-opacity:1;stroke:#000000;stroke-width:1.465;stroke-dasharray:none"
       d="m -83.1471,115.57732 c -0.743445,-3.35576 -10.418006,-7.14876 -13.000662,-5.85744 -3.784028,1.89202 -1.527505,6.08274 1.571509,6.8575 4.092244,1.02306 7.858545,-2.02023 11.429153,-1.00006 z"
       id="path50" />
    <path
       style="fill:#f11e1e;fill-opacity:1;stroke:#000000;stroke-width:1.62093;stroke-dasharray:none"
       d="m 34.870157,119.43398 c -0.93201,3.27695 -13.060391,6.98088 -16.298102,5.71989 -4.743795,-1.84759 -1.914936,-5.9399 1.9701,-6.69646 5.130186,-0.99904 9.851758,1.97278 14.328002,0.97657 z"
       id="path51" />
    <path
       style="fill:#a10424;fill-opacity:1;stroke:none;stroke-width:1.526;stroke-dasharray:none"
       d="m -58.00296,112.57717 -4.285933,-0.0714 c 0,0 -3.428746,-2.07153 -3.714475,-2.2144 -0.285728,-0.14286 -7.428949,-1.92867 -7.428949,-1.92867 l 1.785805,2.57156 8.000407,3.07159 4.428797,0.35716 z"
       id="path67" />
    <path
       style="fill:#a10424;fill-opacity:1;stroke:none;stroke-width:1.526;stroke-dasharray:none"
       d="m -88.361651,113.72009 -3.928772,-0.92862 -1.714373,1.21435 2.642992,0.57145 z"
       id="path68" />
    <path
       style="fill:#a10424;fill-opacity:1;stroke:none;stroke-width:1.526;stroke-dasharray:none"
       d="m 30.760715,121.07296 -5.707654,-0.35357 -4.545918,0.10102 -0.707143,1.36377 4.343878,-0.5051 2.879081,-0.0505 z"
       id="path69" />
  </g>
  <g
     inkscape:groupmode="layer"
     id="layer2"
     inkscape:label="rose2"
     transform="translate(155.77498,-14.371152)">
    <g
       inkscape:groupmode="layer"
       id="layer6"
       inkscape:label="Color"
       transform="translate(-56.913274,14.371152)">
      <path
         style="fill:url(#linearGradient75);stroke:#000000;stroke-width:1.526;stroke-dasharray:none"
         d="m -71.59887,55.330031 c -0.453093,-0.665202 -3.762873,-1.885867 -7.128774,-2.559048 -0.845134,-0.169024 -1.716101,0.622014 -2.741836,0.365579 -2.50696,-0.626739 -7.445085,-2.287244 -10.0534,-0.548367 -0.401882,0.267921 -1.398231,0.66707 -1.827891,1.096734 -0.328446,0.328446 -0.614133,1.355542 -1.096735,1.645102 -0.521476,0.312886 -2.516671,0.965181 -2.924626,1.645102 -0.380588,0.634314 -0.418089,1.415654 -0.913943,2.010679 -0.834501,1.0014 -2.213795,1.726379 -2.559055,3.107418 -0.35959,1.438406 -0.54799,2.468686 0,4.02136 0.11476,0.32502 0.56378,0.429861 0.73116,0.731157 1.220536,2.196962 0.860484,7.443767 -0.54837,9.322243 -0.7962,1.061609 -2.02938,0.100745 -2.92462,0.548367 -0.75097,0.375484 -1.54688,1.106275 -2.19348,1.645103 -1.00237,0.835309 -1.27998,2.0116 -1.82788,3.107414 -0.6243,1.248599 -1.38449,1.880968 -2.01069,2.924626 -0.24236,0.403945 -0.27065,1.083619 -0.54836,1.462312 -1.19072,1.623693 -2.05797,2.514308 -3.65578,3.472993 -2.45946,1.475664 -1.84398,7.317364 -1.64511,9.505033 0.11554,1.270622 2.13882,5.042092 3.10742,5.849252 0.75234,0.62694 1.32183,0.40788 2.01067,1.09674 0.53752,0.53751 0.43215,1.40842 0.91396,2.01068 0.49898,0.62372 1.385,0.79798 1.82789,1.4623 0.53071,0.7961 0.4306,1.75349 0.91394,2.55906 0.85544,1.42574 2.82476,2.68477 4.20415,3.47299 1.98974,1.13699 4.697322,0.23278 6.580404,1.6451 4.548326,3.41124 -1.802015,9.53091 2.741843,14.07476 2.480859,2.48087 5.713608,2.322 8.591087,3.473 0.596651,0.23866 0.841793,0.94161 1.462314,1.09673 1.583825,0.39595 3.240661,0.81437 4.752516,1.46232 1.169699,0.5013 -0.175854,0.35312 1.462313,0.73116 1.753344,0.40461 3.547694,-0.0363 5.300883,0.18278 2.89319,0.36165 6.613677,0.96795 9.505036,0.36558 1.151985,-0.24 1.648728,-1.76939 2.559047,-2.37626 0.47827,-0.31884 0.974874,-0.60929 1.462313,-0.91394 1.279523,-0.54837 2.652994,-0.91552 3.838571,-1.64511 0.446388,-0.2747 0.578401,-0.87687 0.913945,-1.27952 1.153999,-1.3848 3.069982,-3.72846 4.752517,-4.56973 2.180645,-1.09032 8.495451,0.87551 11.150138,1.09673 1.634207,0.13619 2.680675,-0.64509 4.204148,-0.91394 0.900039,-0.15883 1.85518,0.22166 2.741838,0 1.748198,-0.43705 4.736852,-1.66694 6.214828,-2.74183 1.497621,-1.08918 0.805902,-1.81952 1.279524,-2.92463 0.619559,-1.44564 1.696598,-2.72769 2.559046,-4.02136 1.020846,-1.53127 1.513631,-3.60128 2.19347,-5.30089 1.096359,-2.7409 -0.55267,-6.43594 -2.376258,-8.59109 -0.389613,-0.46045 -0.957432,-0.76954 -1.279524,-1.27952 -0.888224,-1.40635 -1.554175,-3.658584 -1.827891,-5.300884 -0.521183,-3.127099 0.943966,-3.603083 1.462313,-5.849249 0.124069,-0.537616 6.77e-4,-1.124337 0.18279,-1.645103 0.252206,-0.720591 0.832807,-1.294306 1.096733,-2.010683 0.738767,-2.00522 1.26814,-5.388375 0.365579,-7.494352 -0.510043,-1.1901 -1.171311,-1.762573 -2.010681,-2.741836 -1.266794,-1.47793 -1.284783,-3.954557 -2.559046,-5.483674 -2.758776,-3.310531 -7.106158,-5.492386 -10.601767,-7.677141 -1.462889,-0.914305 -1.743481,-2.049238 -2.376259,-3.472993 -0.151895,-0.341762 -2.35572,-3.624973 -2.74184,-4.204152 -0.612399,-0.9186 -3.979318,-1.560817 -5.118094,-2.193469 -2.016733,-1.120408 -3.790741,-2.439806 -6.214829,-2.924626 -2.73962,-0.547924 -5.222745,0.122572 -7.859931,0.731157 -0.869264,0.200598 -1.860016,-0.14697 -2.741836,0 -1.954296,0.325717 -3.64674,1.093119 -5.483677,1.82789 -1.272288,0.508917 -1.923269,0.132844 -3.290203,0.913946 z"
         id="path1"
         transform="translate(56.913275,-14.371152)" />
      <path
         style="fill:#a10424;fill-opacity:1;stroke:none;stroke-width:1.526;stroke-dasharray:none"
         d="m -23.739796,91.726532 -5.758163,3.131632 -1.111226,6.364286 3.434696,-3.838777 3.131632,-0.808162 3.636735,0.101021 -1.515307,-2.828573 z"
         id="path52" />
      <path
         style="fill:#a10424;fill-opacity:1;stroke:none;stroke-width:1.526;stroke-dasharray:none"
         d="m -66.409192,100.84462 3.030612,3.13163 2.828571,6.56633 0.707143,-6.4653 -0.909184,-3.23266 -4.242857,-1.818365 z"
         id="path53"
         transform="translate(56.913275,-14.371152)" />
      <path
         style="fill:#a10424;fill-opacity:1;stroke:none;stroke-width:1.526;stroke-dasharray:none"
         d="m -17.476531,69.198979 -1.818367,-1.919386 1.717347,-1.010205 4.84898,-0.303062 3.7377545,0.909185 3.9397961,1.010203 0.7071429,1.212247 -1.6163266,1.414285 -4.5459179,0.707141 z"
         id="path54" />
      <path
         style="fill:#a10424;fill-opacity:1;stroke:none;stroke-width:1.526;stroke-dasharray:none"
         d="m -17.37551,72.229593 5.05102,4.545917 -4.444898,-0.505103 -0.808163,-3.131632 z"
         id="path55" />
      <path
         style="fill:#a10424;fill-opacity:1;stroke:none;stroke-width:1.526;stroke-dasharray:none"
         d="M -6.162245,77.482654 -1.9193878,76.573469 2.6265306,75.866328 1.5153061,73.542857 -0.90918368,71.72449 -0.20204082,70.209184 -2.6265306,69.198979 -3.7377552,69.50204 v 3.636735 l -1.1112243,1.515306 z"
         id="path56" />
      <path
         style="fill:#a10424;fill-opacity:1;stroke:none;stroke-width:1.526;stroke-dasharray:none"
         d="m 9.9933309,111.68099 2.2930101,-1.46108 3.428746,-2.64299 2.000103,-3.00016 5.857441,3.78591 3.89621,1.95244 1.569406,1.21868 -5.226808,0.66307 -4.285189,0.88677 -6.558764,-0.95387 z"
         id="path57"
         sodipodi:nodetypes="ccccccccccc" />
      <path
         style="fill:#a10424;fill-opacity:1;stroke:none;stroke-width:1.526;stroke-dasharray:none"
         d="m -18.286647,111.14853 1.714373,4.28593 1.28578,1.28578 1.000051,-4.28593 2.714424,-1.00005 0.857187,1.14291 3.2858816,0.4286 1.4286442,-1.28578 -2.2858309,-1.42865 -0.7143221,-1.71437 -6.7146278,0.14286 -1.857238,0.71433 z"
         id="path58" />
      <path
         style="fill:#a10424;fill-opacity:1;stroke:none;stroke-width:1.526;stroke-dasharray:none"
         d="m -40.144906,91.004643 -5.285983,-3.000153 -3.571611,-4.143068 -3.857339,-0.571458 5.285984,-1.285779 3.857339,1.714373 1.714373,-2.857289 1.857237,4.000204 4.285933,0.857187 -1.142916,1.714372 z"
         id="path59" />
      <path
         style="fill:#a10424;fill-opacity:1;stroke:none;stroke-width:1.526;stroke-dasharray:none"
         d="m -45.716618,70.2893 -1.428644,2.000102 0.714322,2.28583 4.285932,1.571509 1.142916,-0.857186 -1.28578,-2.57156 -2.857288,-3.57161 z"
         id="path60" />
      <path
         style="fill:#a10424;fill-opacity:1;stroke:none;stroke-width:1.526;stroke-dasharray:none"
         d="m -29.144343,62.288893 -4.714529,-1.571509 -5.143119,1.428644 3.714475,0.857187 1.714373,2.142966 0.428593,2.428695 3.857342,-2.035818 z"
         id="path61" />
      <path
         style="fill:#a10424;fill-opacity:1;stroke:none;stroke-width:1.526;stroke-dasharray:none"
         d="m -4.5964287,55.409694 1.6668369,-6.111734 2.07091833,-3.131632 3.38418367,2.626529 -1.56581632,6.010714 0.10102042,5.808673 -2.1719388,-0.353571 -3.9903062,-1.060714 1.1112246,-1.414285 z"
         id="path62" />
      <path
         style="fill:#a10424;fill-opacity:1;stroke:none;stroke-width:1.526;stroke-dasharray:none"
         d="m 0.95969388,46.82296 0.95969392,-3.737755 4.95,-3.939797 -0.959694,2.373979 L 2.475,48.792857 Z"
         id="path63" />
      <path
         style="fill:#a10424;fill-opacity:1;stroke:none;stroke-width:1.526;stroke-dasharray:none"
         d="m 1.969898,96.929082 2.727551,0.454591 3.2326532,-0.808162 2.2729588,1.212244 2.070919,2.677045 3.939795,0.95969 -6.4147954,-12.627552 -1.8183674,3.838776 -3.0306121,2.929591 -1.3132655,0.353574 z"
         id="path64" />
      <path
         style="fill:#a10424;fill-opacity:1;stroke:none;stroke-width:1.526;stroke-dasharray:none"
         d="m 0.90918368,84.402551 3.08112242,0.656632 1.6163266,-0.454591 3.8387755,3.434693 -2.4244898,-7.829081 -0.6566326,0.10102 -3.1821429,3.081124 z"
         id="path65" />
      <path
         style="fill:#a10424;fill-opacity:1;stroke:none;stroke-width:1.526;stroke-dasharray:none"
         d="M 2.8790818,64.754082 1.4142857,66.77449 4.0408164,68.794899 5.657143,69.14847 6.162245,66.976532 Z"
         id="path66" />
    </g>
    <g
       inkscape:groupmode="layer"
       id="layer4"
       inkscape:label="lines"
       transform="translate(-56.913274,14.371152)">
      <path
         style="fill:none;fill-opacity:1;stroke:#000000;stroke-width:1.526;stroke-dasharray:none"
         d="m -24.813593,54.525188 c -3.072463,-5.559385 -9.58184,0.180257 -10.04533,0.334753 -1.754917,0.584975 -3.303055,0.642344 -5.000254,2.000104 -1.853652,1.482921 -6.419575,8.217874 -6.14317,10.429102 0.339683,2.717464 3.555003,5.17303 4.571661,7.714679 0.262261,0.65565 -1.857237,2.160886 -1.857237,3.14302 0,1.767077 0.845889,2.211847 1.428644,3.57161 2.347241,5.476896 0.314299,1.925809 5.857441,4.143068"
         id="path2"
         sodipodi:nodetypes="cssssssc" />
      <path
         style="fill:none;fill-opacity:1;stroke:#000000;stroke-width:1.465;stroke-dasharray:none"
         d="m -31.858767,80.861269 c -3.533611,0.388512 -2.724319,3.984493 -4.714528,6.571763 -0.880404,1.144527 -4.337336,3.777226 -4.714526,5.285984 -0.135723,0.54289 0.579496,6.167281 0.857186,7.000356 0.435639,1.306918 1.853123,1.244918 2.57156,2.142968 1.388816,1.73602 2.700996,5.79492 5.000257,6.71463 0.839764,0.3359 1.722035,-0.0459 2.571559,0.14286 3.776128,0.83914 8.401579,3.75402 12.429205,2.14297 0.472551,-0.18902 -0.145933,-1.33238 0.571458,-1.57151 2.287966,-0.76266 6.037613,-0.2684 8.4146427,-0.2684"
         id="path3"
         sodipodi:nodetypes="cssssscssc" />
      <path
         style="fill:none;fill-opacity:1;stroke:#000000;stroke-width:1.465;stroke-dasharray:none"
         d="m -13.85785,101.43375 c -0.173088,2.72528 3.450954,4.18748 4.4287976,6.14317 0.4832786,0.96655 0.6390515,2.37851 1.5715085,3.00015 0.4986213,0.33241 1.9009569,1.07292 2.2858309,1.71437 0.3462684,0.57712 0.6650133,1.70661 1.4286444,2.14297 1.580291,0.90302 3.24055073,-0.47687 4.5716619,-0.85719 2.1934325,-0.62669 5.2780855,1.00321 7.4289506,0.14287 0.8341886,-0.33368 0.5663618,-1.54892 1.2857797,-1.85724 5.1948844,-2.22638 5.9262564,-3.4817 8.5718664,-7.71468"
         id="path4" />
      <path
         style="fill:none;fill-opacity:1;stroke:#000000;stroke-width:1.526;stroke-dasharray:none"
         d="m -28.555553,51.978141 c 1.859126,-0.638148 1.334876,-3.613528 2.411362,-4.690014 1.988113,-1.988114 6.328677,-4.767527 9.143324,-5.571713 1.241878,-0.354822 2.390017,0.368078 3.428746,0.714323 1.053986,0.351329 2.62618,-0.120923 3.7144753,0 4.2877721,0.476419 10.9314367,3.541664 12.4292055,7.286085"
         id="path5"
         sodipodi:nodetypes="cssssc" />
      <path
         style="fill:none;fill-opacity:1;stroke:#000000;stroke-width:1.465;stroke-dasharray:none"
         d="m -23.286902,89.29027 c -1.031077,3.047714 1.45769,4.372478 2.714424,6.571763 0.908055,1.589098 1.886279,3.115149 2.857288,4.571667 1.841931,2.76289 13.5549984,0.32786 15.5722235,-0.4286 0.7514846,-0.281804 3.9703303,-3.398871 4.5716618,-4.000203 C 3.3361,95.097493 5.2421316,96.048749 5.8574418,95.43344 7.3385827,93.9523 10.042614,88.722587 10.429104,86.790142"
         id="path6"
         sodipodi:nodetypes="csssssc" />
      <path
         style="fill:none;fill-opacity:1;stroke:#000000;stroke-width:1.465;stroke-dasharray:none"
         d="m -8.571866,85.575795 c -0.6252321,1.161793 -14.745473,5.225111 -15.14363,4.428797 -2.174272,-4.348543 -7.989046,-6.977631 -9.143322,-9.286187 -0.80998,-1.619956 0.03025,-4.338045 -0.57146,-6.143173 -0.563563,-1.69069 -1.559783,-3.6958 -1.142916,-5.571712 0.467437,-2.103461 8.356301,-4.426257 9.571918,-6.857492"
         id="path41" />
      <path
         style="fill:none;fill-opacity:1;stroke:#000000;stroke-width:1.465;stroke-dasharray:none"
         d="m -29.144343,65.289046 c -0.731105,-3.818324 2.083649,-5.996689 3.714474,-8.71473 0.84651,-1.410851 -0.0087,-3.083851 1.000051,-4.428799 1.015489,-1.353984 2.466654,-0.752279 3.428747,-1.714373 0.996439,-0.99644 2.468625,-1.002459 3.714475,-1.714373 5.003408,-2.85909 5.452327,1.156613 8.8575945,3.143017 1.1609321,0.677212 2.5396838,1.042167 3.285882,2.285831 0.6153944,1.025657 0.9150403,3.154431 1.2857798,4.14307"
         id="path42" />
      <path
         style="fill:none;fill-opacity:1;stroke:#000000;stroke-width:1.465;stroke-dasharray:none"
         d="m -9.4290524,59.574469 c -1.2569616,-1.547027 -3.8593736,-0.625287 -5.7145776,-0.857187 -3.007743,-0.375967 -6.155959,-0.776163 -8.71473,1.142916 -0.950473,0.712853 -0.669998,3.591396 -0.857187,4.714525 -0.131206,0.787239 -0.919224,1.819659 -1.142915,2.714424 -0.365274,1.461096 0.148607,3.171735 0.428593,4.571662 1.212895,6.064474 -0.19124,5.476094 6.000306,8.571867 1.429379,0.714687 0.196781,2.142966 2.428696,2.142966"
         id="path43" />
      <path
         style="fill:none;fill-opacity:1;stroke:#000000;stroke-width:1.465;stroke-dasharray:none"
         d="m -16.932282,76.353734 c -0.08991,1.13536 -0.841668,6.835419 1.07433,7.793417 2.075261,1.03763 4.783708,-0.01474 7.0003572,0.428593 1.9140649,0.382813 3.9340226,1.98306 6.4288995,1.428644 1.0629416,-0.236209 0.8700836,-1.292227 1.4286443,-1.571508 0.83234789,-0.416174 1.91960912,0.06752 2.7144242,-0.285729 2.3422975,-1.041022 5.3144015,-4.821288 6.1431707,-6.893208"
         id="path44"
         sodipodi:nodetypes="csssssc" />
      <path
         style="fill:none;fill-opacity:1;stroke:#000000;stroke-width:1.465;stroke-dasharray:none"
         d="M 7.6686297,69.475444 C 5.8408441,67.251981 2.2210843,62.186425 -0.28572886,60.431655 -0.85544799,60.032852 -9.1325659,57.706474 -9.286188,57.860096 c -0.764013,0.764011 -1.170878,2.399969 -2.428695,2.714424 -2.464209,0.61605 -5.017395,0.640014 -5.714578,3.428746"
         id="path45"
         sodipodi:nodetypes="csssc" />
      <path
         style="fill:none;fill-opacity:1;stroke:#000000;stroke-width:1.465;stroke-dasharray:none"
         d="m -1.9899489,66.095722 c -1.5044129,0.02278 -16.8188281,-4.339197 -17.5824781,-0.520948 -0.305574,1.527869 0.729119,2.473087 1.142915,3.714475 0.832311,2.496934 0.607304,6.00048 2.000102,7.857543"
         id="path46"
         sodipodi:nodetypes="cssc" />
      <path
         style="fill:none;fill-opacity:1;stroke:#000000;stroke-width:1.465;stroke-dasharray:none"
         d="m -17.002354,76.256428 c 2.569755,-0.08398 6.288815,2.438772 9.2876748,1.176093 3.3317362,-1.402834 5.0825002,-5.978679 3.4287462,-9.286187 -0.4786767,-0.957353 -1.7438449,-1.773317 -2.2858309,-2.857288"
         id="path47"
         sodipodi:nodetypes="cssc" />
      <path
         style="fill:none;fill-opacity:1;stroke:#000000;stroke-width:1.465;stroke-dasharray:none"
         d="m -3.8731851,68.885167 c -2.6018754,3.844922 -11.3537829,2.006752 -14.7511889,-0.03169"
         id="path48"
         sodipodi:nodetypes="cc" />
    </g>
  </g>
  <g
     inkscape:label="Layer 1"
     inkscape:groupmode="layer"
     id="layer1"
     style="opacity:1"
     transform="translate(68.491807,-71.852561)">
    <path
       style="opacity:1;fill:url(#linearGradient73);stroke:#000000;stroke-width:0.264583;stroke-opacity:1"
       d="m 62.332093,88.113128 c -0.336735,0.269388 -1.528788,2.253195 -1.947144,2.148606 -1.329143,-0.332285 -0.966732,2.312705 -2.146684,1.919386 -1.423421,-0.474472 -3.294828,-2.236044 -4.242857,-1.288008 -0.142864,0.142864 -2.55943,3.670654 -3.207398,4.192344 -1.184464,0.953635 -1.807398,1.002893 -3.030612,1.818371 -0.833223,0.555479 -2.270461,-0.642481 -3.182144,-0.277809 -1.50935,0.603742 -1.085998,0.206797 -2.475,1.161736 -0.244424,0.168043 -0.673112,4.048526 -0.934438,4.571176 -0.120473,0.24094 -1.249547,4.25143 -1.363776,4.4954 -0.986897,2.10784 -3.081721,6.15543 -4.318621,8.68776 -0.448206,0.91762 -1.626934,3.30438 -2.070918,4.19235 -1.110437,2.22087 -1.911582,4.83169 -2.070919,7.32397 -0.133546,2.08889 -0.471952,4.18919 0.378826,6.11174 0.98317,2.22173 2.915586,4.33462 4.672195,5.83393 -0.350025,2.57807 -0.839766,5.01506 -0.227298,8.48571 0.478999,2.71434 1.336899,5.24657 2.020407,7.98062 0.480399,1.92159 1.575011,3.36737 2.096174,5.27831 0.603573,2.2131 1.820604,3.76517 2.702296,5.85918 1.694561,4.02458 2.351951,3.9106 3.687246,6.54108 0.39055,0.76937 1.592557,3.20063 4.040817,5.10153 1.507483,1.17045 1.491921,0.97925 5.429847,3.48521 1.038868,0.6611 2.087184,0.92336 3.232652,1.41428 1.32842,0.56932 1.856789,1.05933 3.207397,1.56581 1.50413,0.56405 3.035583,1.23306 4.79847,1.89414 1.657157,0.62143 2.543683,0.86798 4.268112,1.23749 0.526817,0.11289 4.161066,1.06713 4.672194,1.2375 4.810744,1.60359 3.122772,0.54676 5.758163,3.18215 0.760499,0.7605 3.690312,3.88301 4.949809,4.6161 3.487414,2.02985 5.601236,2.72062 8.511162,1.52089 2.143949,-0.88393 1.876683,-2.15059 3.384183,-2.90434 0.180711,-0.0904 0.631379,0.35357 0.833417,0.35357 0.269389,-0.0673 0.817979,0.51367 1.060719,0.37883 0.37696,-0.20942 0.76702,-0.17367 1.18699,-0.0758 1.27702,0.2977 3.06771,0.43101 5.02577,0.45458 1.10491,0.0133 4.60494,-0.92252 4.92474,-1.288 0.88895,-1.01594 2.74644,-1.12885 3.63673,-2.19719 0.72549,-0.87059 0.74811,-1.89039 1.6921,-2.67704 0.84111,-0.70093 0.0469,-1.58023 0.93443,-2.17195 1.45296,-0.96864 3.98171,-1.12919 5.35408,-1.71735 0.86952,-0.37265 2.19953,-0.73276 3.15689,-0.88392 1.74311,-0.27523 2.34962,0.24209 3.96505,-0.40408 0.6023,-0.24092 1.22647,-0.93125 1.28801,-1.38904 0.10869,-0.80854 -0.0313,-1.73057 0.25255,-2.29821 0.085,-0.16993 -0.28608,-3.13741 1.01706,-4.34807 1.37624,-1.27858 3.87773,-1.25621 5.29672,-1.35958 2.17825,-0.15868 2.92795,0.92293 5.02576,0.42933 0.69442,-0.16338 1.98868,0.0954 3.23611,-0.10473 1.58986,-0.25511 3.16672,-0.97192 4.01211,-1.18327 1.63764,-0.40941 2.5222,-4.69381 2.92959,-6.4148 0.54451,-2.30026 0.25389,-3.04694 0.35357,-5.10153 0.95167,-0.17366 5.26136,-0.48391 6.31378,-1.06072 1.49529,-0.81954 1.91141,-1.11494 3.23265,-2.17193 0.71445,-0.57156 1.77116,-3.03392 2.42449,-3.68725 1.0981,-1.0981 1.05478,-2.97022 1.81837,-4.24286 1.56425,-2.60708 2.14152,-5.96654 3.63463,-8.65414 1.05721,-1.90297 3.92917,-3.99044 4.24824,-6.22395 0.36492,-2.55443 -0.91755,-4.28042 -3.08292,-5.90445 -0.84547,-0.6341 -3.3079,-1.20322 -4.59024,-2.2877 -1.07682,-0.91067 -1.0161,-2.32164 -1.45977,-3.09807 -0.50954,-0.8917 0.27007,-3.31331 0.27407,-5.57738 0.004,-2.4862 -0.22974,-5.14195 -1.06893,-5.73004 -1.49995,-1.05113 -8.27352,-1.09314 -8.27352,-1.09314 0,0 0.84165,-2.90506 0.75672,-5.12714 -0.0612,-1.60101 -1.01545,-2.93849 -1.42766,-4.48728 0.89165,-3.4661 1.09295,-6.855812 1.29142,-7.782013 0.40846,-1.90612 0.71442,-4.995376 -0.20204,-6.995663 -1.21309,-2.647694 -1.64245,-4.666651 -2.93681,-5.598377 -1.74513,-1.256199 -4.05064,-0.965861 -6.63487,-0.841673 -1.57605,0.07574 -3.02185,-1.054392 -3.4347,-2.070918 -0.5266,-1.29661 -0.97322,-1.984032 -3.05587,-4.318622 -1.20258,-1.348064 -3.26236,-2.358485 -4.74796,-3.207398 -4.18305,-2.390314 -11.98658,0.480058 -16.28954,2.272959 -1.98396,0.826648 -4.28306,1.933533 -6.33903,2.57602 -0.69284,0.216512 -1.83355,1.127826 -2.42449,1.212244 -4.59534,0.656477 -8.42004,0.550562 -13.056887,0.808163 -2.712636,0.150702 -2.075147,-1.251806 -5.051019,-0.656631 -2.563164,0.512633 -4.430704,-1.152655 -6.919899,-0.530358 -1.390859,0.347715 -3.790297,0.877004 -5.25306,1.085969 -2.631799,0.375973 -5.250678,2.664176 -7.904848,2.929592 -0.598638,0.05987 -0.276871,0.276871 -0.606121,0.606124 -0.491961,0.491961 -3.072073,1.570584 -3.485204,2.121428 -1.328939,1.771917 -0.458135,3.025518 -0.959695,3.636735 -0.457296,0.557275 -1.639229,0.149176 -3.863414,-0.525018 -1.001171,-0.0031 -2.363678,-1.034304 -2.70041,-0.764915 z"
       id="path24"
       sodipodi:nodetypes="sssssssssssssscssssssssssscsssscsssssssssssssssssscssssssssssscscsssssssssssssssssscss" />
    <path
       style="opacity:1;fill:#a10424;fill-opacity:1;stroke:none;stroke-width:0.264583;stroke-opacity:1"
       d="m 69.217817,159.57957 -7.071791,5.85744 -2.928721,9.85765 6.71463,-6.35747 9.429052,-3.35732 4.428797,-0.42859 -1.000051,-4.0002 0.357161,-3.57161 -3.928772,1.14291 -4.500229,0.71432 z"
       id="path25" />
    <path
       style="opacity:1;fill:#a10424;fill-opacity:1;stroke:none;stroke-width:0.264583;stroke-opacity:1"
       d="m 120.07755,164.79412 5.50028,1.71437 4.57167,3.14302 2.21439,2.4287 0.50003,-4.28594 -3.78591,-5.92887 -1.7858,-2.71443 -2.64299,-1.14291 -1.21435,1.28578 -2.28583,3.85734 z"
       id="path26" />
    <path
       style="opacity:1;fill:#a10424;fill-opacity:1;stroke:none;stroke-width:0.264583;stroke-opacity:1"
       d="m 100.11122,151.73265 2.52551,5.96021 v 4.14183 l 3.23266,-5.75816 1.21224,-5.65714 -2.52551,-1.31327 0.30306,1.71735 -2.42449,0.80816 z"
       id="path27" />
    <path
       style="opacity:1;fill:#a10424;fill-opacity:1;stroke:none;stroke-width:0.264583;stroke-opacity:1"
       d="m 72.027549,132.23571 -7.374488,-0.10102 -10.607143,5.35408 4.242856,-1.11122 7.37449,-1.31327 6.768367,0.80817 z"
       id="path28" />
    <path
       style="opacity:1;fill:#a10424;fill-opacity:1;stroke:none;stroke-width:0.264583;stroke-opacity:1"
       d="m 108.74847,125.82092 -2.22245,1.5153 -1.9699,2.82857 -0.35357,2.9296 0.95969,1.0102 4.95,0.45459 1.51531,-0.20204 0.45459,-1.71735 -0.5051,-3.4852 z"
       id="path29" />
    <path
       style="opacity:1;fill:#a10424;fill-opacity:1;stroke:none;stroke-width:0.264583;stroke-opacity:1"
       d="m 149.20714,130.26581 5.4551,-0.65663 7.47551,1.41429 6.51582,4.49541 -12.12245,-2.72755 -5.60663,-0.10103 -2.52551,0.9597 -1.01021,-2.02041 1.26276,-1.56582 z"
       id="path30" />
    <path
       style="opacity:1;fill:#a10424;fill-opacity:1;stroke:none;stroke-width:0.264583;stroke-opacity:1"
       d="m 134.55918,109.9102 4.04082,-6.06122 3.43469,-1.41429 -2.82857,3.03061 -1.21225,4.84898 -1.21224,5.85919 z"
       id="path31" />
    <path
       style="opacity:1;fill:#a10424;fill-opacity:1;stroke:none;stroke-width:0.264583;stroke-opacity:1"
       d="m 97.838264,107.78877 c 0,0 -1.919388,-4.34387 -1.969897,-4.54592 -0.05051,-0.20203 -6.364287,-5.455095 -6.364287,-5.455095 l 6.010714,1.868877 3.485205,1.818368 2.727551,2.57602 1.36378,1.61633 -0.90919,2.9801 0.30306,1.86887 -3.333671,-1.66683 z"
       id="path32" />
    <path
       style="opacity:1;fill:#a10424;fill-opacity:1;stroke:none;stroke-width:0.264583;stroke-opacity:1"
       d="m 104.29103,93.933363 3.14302,-1.285779 c 0,0 1.57151,-1.357212 1.57151,-1.642941 0,-0.285729 1.50008,-1.85724 1.50008,-1.85724 l 2.78585,-0.214297 -2.35726,2.928723 -1.21435,2.714424 -0.78575,1.357212 -2.78586,-0.857186 z"
       id="path33" />
    <path
       style="opacity:1;fill:#a10424;fill-opacity:1;stroke:none;stroke-width:0.264583;stroke-opacity:1"
       d="m 72.003673,104.64819 -2.500127,-0.35716 -1.714373,1.35722 1.642941,-0.14287 0.357161,1.14292 -1.857238,0.14286 -2.071534,1.92867 3.071585,-0.0714 2.857288,0.78575 0.64289,-2.28583 z"
       id="path34" />
    <path
       style="opacity:1;fill:#a10424;fill-opacity:1;stroke:none;stroke-width:0.264583;stroke-opacity:1"
       d="m 58.743368,110.16275 -4.495409,-0.75765 -7.930102,1.06072 -2.929593,4.69745 -1.868877,5.55612 2.475,-4.95 2.879082,-2.52551 2.57602,-0.9597 3.586224,0.55561 1.262755,1.51531 -2.980102,2.475 -0.606121,1.81837 -0.959694,3.88928 -0.151532,1.4648 c 0,0 1.969899,-3.88929 2.171941,-3.99031 0.202041,-0.10102 4.141835,-5.30357 4.141835,-5.30357 L 59.4,112.53673 60.612244,111.375 Z"
       id="path35" />
    <path
       style="opacity:1;fill:#a10424;fill-opacity:1;stroke:none;stroke-width:0.264583;stroke-opacity:1"
       d="m 88.433081,183.86652 1.142918,4.92882 3.285881,5.14312 -0.142864,-2.14296 -0.857187,-4.50023 1.571509,-0.78576 2.500127,2.07154 1.571509,-1.42865 -2.500128,-1.07148 -2.428695,-3.07159 -1.714373,-3.35731 -1.714375,1.57151 z"
       id="path36" />
    <path
       style="opacity:1;fill:#a10424;fill-opacity:1;stroke:none;stroke-width:0.264583;stroke-opacity:1"
       d="m 134.07827,141.07863 2.78585,0.21429 4.14307,2.57156 -1.85724,-2.42869 -3.92877,-3.21446 z"
       id="path37" />
    <path
       style="opacity:1;fill:#a10424;fill-opacity:1;stroke:none;stroke-width:0.264583;stroke-opacity:1"
       d="m 116.74235,121.15052 5.15204,-2.52551 5.96021,0.40408 c 0,0 4.84898,5.65715 4.34387,5.65715 -0.5051,0 -5.65714,-2.02041 -5.65714,-2.02041 l -3.33367,1.91938 3.33367,1.61633 -1.21224,3.33367 -6.16225,2.52551 1.41429,-3.13163 -0.70715,-3.83878 z"
       id="path38" />
    <path
       style="opacity:1;fill:#a10424;fill-opacity:1;stroke:none;stroke-width:0.264583;stroke-opacity:1"
       d="m 103.81174,121.5546 5.65714,-3.33367 3.13164,0.10102 -5.75817,-4.24286 -4.24286,5.65714 -0.30306,1.91939 z"
       id="path39" />
    <path
       style="opacity:1;fill:#a10424;fill-opacity:1;stroke:none;stroke-width:0.264583;stroke-opacity:1"
       d="m 94.517861,133.77807 -6.869387,-6.16224 1.515306,-10.60715 3.434693,-3.13163 -2.121429,5.85918 -0.10102,4.14184 2.020408,2.82857 1.919388,-4.64694 h 1.919388 l 4.343872,0.60613 -3.232648,6.26326 z"
       id="path40" />
  </g>
  <g
     inkscape:groupmode="layer"
     id="layer3"
     inkscape:label="line"
     transform="translate(68.491807,-71.852561)">
    <path
       style="opacity:1;fill:none;fill-opacity:0.606707;stroke:#000000;stroke-width:1.526;stroke-dasharray:none;stroke-opacity:1"
       d="M 106.55091,114.78833 C 79.332297,84.731046 60.17558,144.2988 82.238589,149.81457 c 10.676405,2.66914 22.664031,1.84657 22.664031,1.23624 0,-7.74844 -25.22968,-0.42516 1.64829,-36.26248 z"
       id="path7" />
    <path
       style="opacity:1;fill:none;fill-opacity:0.606707;stroke:#000000;stroke-width:1.52631;stroke-opacity:1"
       d="m 98.18484,128.07851 c 2.91539,5.31773 7.91783,6.31659 13.69485,6.70171 7.29825,0.4863 12.23297,-0.88919 19.37676,-2.47669 6.94265,-1.54285 3.01638,8.09428 1.01983,10.63535 -3.55025,4.51847 -16.64657,8.69821 -22.58193,8.1586 -3.9168,-0.35593 -14.183854,-7.42943 -15.588834,-11.07239"
       id="path8"
       sodipodi:nodetypes="ccsscc" />
    <path
       style="opacity:1;fill:none;fill-opacity:0.606707;stroke:#000000;stroke-width:1.52631;stroke-opacity:1"
       d="m 116.76031,134.81662 c 1.95105,0.18806 2.40268,-1.97573 2.98664,-3.53294 3.4111,-9.09631 -10.62983,-14.12642 -15.8802,-19.37677 -1.58556,-1.58559 -2.74701,-5.16584 0,-6.26467 6.08034,-2.43215 24.84911,-2.94511 29.72074,2.62241 2.41868,2.7642 7.19347,19.02349 3.20517,21.41641 -1.80438,1.08268 -4.54805,2.57026 -8.58257,3.28322"
       id="path9"
       sodipodi:nodetypes="csssssc" />
    <path
       style="opacity:1;fill:none;fill-opacity:0.606707;stroke:#000000;stroke-width:1.52631;stroke-opacity:1"
       d="m 114.56108,103.79792 c -0.29305,-7.07131 -9.65597,-10.231364 -15.221445,-10.231364 -6.558822,0 -13.207642,-3.90192 -19.367448,-0.20595 -7.567704,4.54057 -11.372978,19.552944 -2.678473,23.900204"
       id="path10"
       sodipodi:nodetypes="cscc" />
    <path
       style="opacity:1;fill:none;fill-opacity:0.606707;stroke:#000000;stroke-width:1.52631;stroke-opacity:1"
       d="m 72.554868,109.43137 c -14.678906,-6.01955 -31.24297,22.88139 -25.960624,32.96588 3.660514,6.98824 12.048994,11.75027 18.749329,15.65876 5.750081,3.35423 19.161418,-0.0929 19.161418,-8.03538"
       id="path11" />
    <path
       style="opacity:1;fill:none;fill-opacity:0.606707;stroke:#000000;stroke-width:1.52631;stroke-opacity:1"
       d="m 78.942002,157.85001 c -0.190138,3.20355 -0.288322,5.68676 2.060366,8.03544 2.542453,2.54245 29.076752,7.28343 34.408122,5.1509 2.02863,-0.81149 0.22902,-2.28944 1.44226,-3.5026 4.65564,-4.65571 10.85852,-12.69109 7.41731,-19.57348"
       id="path12" />
    <path
       style="opacity:1;fill:none;fill-opacity:0.606707;stroke:#000000;stroke-width:1.52631;stroke-opacity:1"
       d="m 123.45284,157.7511 c 8.22959,3.21976 23.31969,-2.25646 27.39595,-10.40895 3.86587,-7.73177 -5.59343,-22.7378 -12.56824,-23.90026"
       id="path13"
       sodipodi:nodetypes="csc" />
    <path
       style="opacity:1;fill:none;fill-opacity:0.606707;stroke:#000000;stroke-width:1.52631;stroke-opacity:1"
       d="m 147.96427,130.85921 c 1.9424,-3.37701 5.24761,-5.67735 7.41732,-8.85962 0.66318,-0.9726 5.04557,-15.71142 1.03018,-17.71912 -1.91376,-0.95691 -6.03874,-1.09386 -7.62335,-2.67848 -1.54409,-1.54411 -1.5395,-6.099514 -4.12073,-8.035434 -2.55363,-1.91522 -7.06781,0.49957 -9.88976,-0.20595 -4.90144,-1.22539 -8.11967,-8.84277 -16.27689,-7.21132 -3.73943,0.74792 -8.09721,6.13984 -9.27165,9.27168"
       id="path14"
       sodipodi:nodetypes="ccsssscc" />
    <path
       style="opacity:1;fill:none;fill-opacity:0.606707;stroke:#000000;stroke-width:1.52631;stroke-opacity:1"
       d="m 116.85275,87.385476 c -2.47361,-1.95353 -3.30877,-5.53014 -5.56299,-7.62338 -0.29484,-0.27402 -2.14798,-0.20595 -2.47245,-0.20595 -3.73884,0 -7.42395,0.90287 -11.125974,0.61806 -3.514086,-0.27055 -6.484775,-1.89358 -10.095793,-1.44224 -3.719407,0.46496 -7.931394,1.87623 -11.332015,3.50266 -1.860935,0.89 -5.029774,1.93922 -6.59317,3.5026 -0.774677,0.77469 -0.593475,3.70047 -1.236222,3.91472 -1.775373,0.59176 -5.06918,-2.96628 -7.417331,-0.61812 -4.370148,4.37016 -6.837412,17.400114 -1.030186,22.045904"
       id="path15" />
    <path
       style="opacity:1;fill:none;fill-opacity:0.606707;stroke:#000000;stroke-width:1.52631;stroke-opacity:1"
       d="m 58.750403,92.536376 c -7.576115,-5.38685 -5.699777,2.58669 -10.301835,4.12072 -1.437458,0.47938 -5.087738,-0.35882 -5.975061,0.82417 -1.28532,1.71372 -1.176129,6.266984 -2.266402,8.447504 -4.793072,9.58614 -17.191622,28.40287 -1.03018,33.79 2.992177,0.99742 3.85451,1.78139 6.593169,0.41189"
       id="path16" />
    <path
       style="opacity:1;fill:none;fill-opacity:0.606707;stroke:#000000;stroke-width:1.52631;stroke-opacity:1"
       d="m 36.910523,137.86441 c -3.864041,10.79295 5.401015,28.50654 11.538045,38.7349 2.398385,3.99733 28.537788,14.3338 32.5538,13.18634 4.779797,-1.36563 12.995769,-16.11807 16.895004,-19.36742"
       id="path17" />
    <path
       style="opacity:1;fill:none;fill-opacity:0.606707;stroke:#000000;stroke-width:1.52631;stroke-opacity:1"
       d="m 90.067981,179.27779 c 2.43497,1.94279 3.123733,6.40041 6.181098,7.62338 2.146954,0.85879 7.060911,-0.85199 9.065621,-1.85436 2.10989,-1.05493 6.62513,2.98451 8.65353,3.2966 5.30182,0.8157 9.41152,-2.88448 14.6286,-2.88448 0.72962,0 2.50993,0.13095 2.88452,-0.61812 1.23937,-2.47877 -0.28152,-6.76147 2.67847,-8.2415 3.58092,-1.79044 10.41772,0.57953 14.6286,-0.82412 8.9104,-2.97015 4.33894,-20.846 0.41206,-25.75456"
       id="path18" />
    <path
       style="opacity:1;fill:none;fill-opacity:0.606707;stroke:#000000;stroke-width:1.52631;stroke-opacity:1"
       d="m 158.2661,113.96421 c 13.39754,-1.36355 6.82762,6.50073 8.65354,13.8044 0.74376,2.97505 7.91296,2.76784 8.65354,7.21132 0.74615,4.47688 -3.90855,7.05753 -5.35696,10.91992 -3.21234,8.56628 -5.29821,18.90494 -16.48292,17.30712"
       id="path19"
       sodipodi:nodetypes="csssc" />
    <path
       style="opacity:1;fill:none;fill-opacity:0.606707;stroke:#000000;stroke-width:1.52631;stroke-opacity:1"
       d="m 101.95669,121.56884 c 4.30554,0.42631 12.64223,8.05904 9.5391,13.02401"
       id="path20"
       sodipodi:nodetypes="cc" />
    <path
       style="opacity:1;fill:none;fill-opacity:0.606707;stroke:#000000;stroke-width:1.52631;stroke-opacity:1"
       d="m 109.20957,125.79259 c -3.46926,0.6142 -4.92506,4.45375 -4.92506,7.33298"
       id="path21"
       sodipodi:nodetypes="cc" />
    <path
       style="opacity:1;fill:none;fill-opacity:0.606707;stroke:#000000;stroke-width:1.52631;stroke-opacity:1"
       d="m 111.90787,80.174156 c 9.41322,-5.17548 22.83791,-12.97763 31.93567,-2.06036 1.08054,1.29669 1.07773,3.0985 2.06037,4.32678 0.66614,0.83271 6.41554,0.0519 7.82939,0.61812 6.96196,2.78479 4.6059,17.043484 2.88451,21.633834"
       id="path22" />
    <path
       style="opacity:1;fill:none;fill-opacity:0.606707;stroke:#000000;stroke-width:1.52631;stroke-opacity:1"
       d="m 79.560115,189.78565 c 3.360754,2.3391 5.9982,7.12398 10.095794,8.2415 1.438468,0.39227 5.30402,1.06542 6.59317,0.20594 0.405022,-0.26998 2.386005,-2.77591 2.678476,-2.67842 6.674975,2.22494 17.718925,1.03174 18.955375,-7.62338"
       id="path23" />
  </g>
</svg>
