<?xml version="1.0" encoding="UTF-8" standalone="no"?>
<!-- Created with Inkscape (http://www.inkscape.org/) -->

<svg
   width="180.29491mm"
   height="205.15332mm"
   viewBox="0 0 681.42959 775.38264"
   version="1.1"
   id="svg1"
   inkscape:version="1.4.2 (f4327f4, 2025-05-13)"
   sodipodi:docname="wall_poster.svg"
   xmlns:inkscape="http://www.inkscape.org/namespaces/inkscape"
   xmlns:sodipodi="http://sodipodi.sourceforge.net/DTD/sodipodi-0.dtd"
   xmlns="http://www.w3.org/2000/svg"
   xmlns:svg="http://www.w3.org/2000/svg">
  <sodipodi:namedview
     id="namedview1"
     pagecolor="#505050"
     bordercolor="#eeeeee"
     borderopacity="1"
     inkscape:showpageshadow="0"
     inkscape:pageopacity="0"
     inkscape:pagecheckerboard="0"
     inkscape:deskcolor="#505050"
     inkscape:document-units="mm"
     inkscape:zoom="5.2382155"
     inkscape:cx="581.49574"
     inkscape:cy="705.10654"
     inkscape:window-width="1920"
     inkscape:window-height="974"
     inkscape:window-x="-11"
     inkscape:window-y="-11"
     inkscape:window-maximized="1"
     inkscape:current-layer="svg1" />
  <defs
     id="defs1" />
  <rect
     style="fill:#000000;fill-opacity:0.25304878;stroke-width:1.09625"
     id="rect1"
     width="562.02344"
     height="675.41504"
     x="68.742393"
     y="58.845783" />
  <g
     inkscape:label="Layer 1"
     inkscape:groupmode="layer"
     id="layer1"
     transform="translate(-68.354322,-158.06829)">
    <rect
       style="fill:#ffffff;stroke-width:1.09625"
       id="rect3"
       width="562.02344"
       height="675.41504"
       x="128.28796"
       y="209.23157" />
  </g>
  <g
     inkscape:groupmode="layer"
     id="g8"
     inkscape:label="scotch"
     style="opacity:0.571023;fill:#cccccc;fill-opacity:0.503012"
     transform="matrix(-1,0,0,1,748.81254,-151.381)">
    <path
       id="path6"
       style="fill:#e6e6e6;fill-opacity:1"
       transform="rotate(-45)"
       d="M -149.88443,245.1783 H 31.093231 l 2.29483,5.16069 -2.29483,4.58966 2.362325,6.54701 -2.362325,4.65716 2.42982,6.682 -2.42982,6.14205 3.37475,6.14205 -3.37475,6.41202 2.15984,4.58966 -2.15984,5.06213 2.42982,5.66958 -2.42982,6.30806 H -149.88443 l -1.88986,-5.49812 1.88986,-6.07455 -2.6998,-5.53459 2.6998,-5.33211 -2.29483,-6.95198 2.29483,-4.99463 -2.02485,-4.0497 2.02485,-7.15448 -2.56481,-5.3996 2.56481,-6.00705 -3.03728,-5.87207 z"
       sodipodi:nodetypes="ccccccccccccccccccccccccccc" />
    <path
       style="fill:#b3b3b3;fill-opacity:1;stroke-width:1.84404"
       d="M 199.11361,175.82324 84.952586,277.19364 146.3148,235.34734 Z"
       id="path7"
       sodipodi:nodetypes="cccc" />
    <path
       style="fill:#b3b3b3;fill-opacity:1;stroke-width:0.90113"
       d="m 183.50497,216.92041 -40.37199,62.51144 22.91799,-26.95001 z"
       id="path8"
       sodipodi:nodetypes="cccc" />
    <g
       inkscape:groupmode="layer"
       id="layer2"
       inkscape:label="scotch"
       style="opacity:0.571023;fill:#cccccc;fill-opacity:0.503012"
       transform="matrix(-1,0,0,1,816.19548,-4.2689402e-8)">
      <path
         id="rect2"
         style="fill:#e6e6e6;fill-opacity:1"
         transform="rotate(-45)"
         d="M -149.88443,245.1783 H 31.093231 l 2.29483,5.16069 -2.29483,4.58966 2.362325,6.54701 -2.362325,4.65716 2.42982,6.682 -2.42982,6.14205 3.37475,6.14205 -3.37475,6.41202 2.15984,4.58966 -2.15984,5.06213 2.42982,5.66958 -2.42982,6.30806 H -149.88443 l -1.88986,-5.49812 1.88986,-6.07455 -2.6998,-5.53459 2.6998,-5.33211 -2.29483,-6.95198 2.29483,-4.99463 -2.02485,-4.0497 2.02485,-7.15448 -2.56481,-5.3996 2.56481,-6.00705 -3.03728,-5.87207 z"
         sodipodi:nodetypes="ccccccccccccccccccccccccccc" />
      <path
         style="fill:#b3b3b3;fill-opacity:1;stroke-width:1.84404"
         d="M 199.11361,175.82324 84.952586,277.19364 146.3148,235.34734 Z"
         id="path2"
         sodipodi:nodetypes="cccc" />
      <path
         style="fill:#b3b3b3;fill-opacity:1;stroke-width:0.90113"
         d="m 183.50497,216.92041 -40.37199,62.51144 22.91799,-26.95001 z"
         id="path3"
         sodipodi:nodetypes="cccc" />
    </g>
  </g>
  <g
     inkscape:groupmode="layer"
     id="g15"
     inkscape:label="scotch"
     style="opacity:0.571023;fill:#cccccc;fill-opacity:0.503012"
     transform="rotate(180,374.40627,463.38183)">
    <path
       id="path9"
       style="fill:#e6e6e6;fill-opacity:1"
       transform="rotate(-45)"
       d="M -149.88443,245.1783 H 31.093231 l 2.29483,5.16069 -2.29483,4.58966 2.362325,6.54701 -2.362325,4.65716 2.42982,6.682 -2.42982,6.14205 3.37475,6.14205 -3.37475,6.41202 2.15984,4.58966 -2.15984,5.06213 2.42982,5.66958 -2.42982,6.30806 H -149.88443 l -1.88986,-5.49812 1.88986,-6.07455 -2.6998,-5.53459 2.6998,-5.33211 -2.29483,-6.95198 2.29483,-4.99463 -2.02485,-4.0497 2.02485,-7.15448 -2.56481,-5.3996 2.56481,-6.00705 -3.03728,-5.87207 z"
       sodipodi:nodetypes="ccccccccccccccccccccccccccc" />
    <path
       style="fill:#b3b3b3;fill-opacity:1;stroke-width:1.84404"
       d="M 199.11361,175.82324 84.952586,277.19364 146.3148,235.34734 Z"
       id="path10"
       sodipodi:nodetypes="cccc" />
    <path
       style="fill:#b3b3b3;fill-opacity:1;stroke-width:0.90113"
       d="m 183.50497,216.92041 -40.37199,62.51144 22.91799,-26.95001 z"
       id="path11"
       sodipodi:nodetypes="cccc" />
    <g
       inkscape:groupmode="layer"
       id="g14"
       inkscape:label="scotch"
       style="opacity:0.571023;fill:#cccccc;fill-opacity:0.503012"
       transform="matrix(-1,0,0,1,816.19548,-4.2689402e-8)">
      <path
         id="path12"
         style="fill:#e6e6e6;fill-opacity:1"
         transform="rotate(-45)"
         d="M -149.88443,245.1783 H 31.093231 l 2.29483,5.16069 -2.29483,4.58966 2.362325,6.54701 -2.362325,4.65716 2.42982,6.682 -2.42982,6.14205 3.37475,6.14205 -3.37475,6.41202 2.15984,4.58966 -2.15984,5.06213 2.42982,5.66958 -2.42982,6.30806 H -149.88443 l -1.88986,-5.49812 1.88986,-6.07455 -2.6998,-5.53459 2.6998,-5.33211 -2.29483,-6.95198 2.29483,-4.99463 -2.02485,-4.0497 2.02485,-7.15448 -2.56481,-5.3996 2.56481,-6.00705 -3.03728,-5.87207 z"
         sodipodi:nodetypes="ccccccccccccccccccccccccccc" />
      <path
         style="fill:#b3b3b3;fill-opacity:1;stroke-width:1.84404"
         d="M 199.11361,175.82324 84.952586,277.19364 146.3148,235.34734 Z"
         id="path13"
         sodipodi:nodetypes="cccc" />
      <path
         style="fill:#b3b3b3;fill-opacity:1;stroke-width:0.90113"
         d="m 183.50497,216.92041 -40.37199,62.51144 22.91799,-26.95001 z"
         id="path14"
         sodipodi:nodetypes="cccc" />
    </g>
  </g>
</svg>
